<svg width="175" height="48" viewBox="0 0 175 48" fill="none" xmlns="http://www.w3.org/2000/svg">
<g clip-path="url(#clip0_187_2)">
<path fill-rule="evenodd" clip-rule="evenodd" d="M6.03 7.744C3.708 6.41 0.749 3.832 0 0C2.413 3.122 8.637 3.968 14.765 4.039C25.496 4.166 30.637 8.239 31.901 22.185C33.105 35.503 26.45 39 19.987 45.424C14.979 41.695 6.863 41.83 1.723 43.094C4.463 40.774 6.987 39.347 9.382 38.57C10.976 35.841 10.331 31.927 9.527 26.097C8.229 16.685 10.214 13.648 13.781 9.953C10.77 9.438 7.98 8.861 6.03 7.744ZM16.367 10.401C14.466 12.57 15.244 16.638 15.677 22.517C16.411 32.38 16.753 34.834 12.734 37.889C16.175 37.585 19.433 38.49 22.782 39.83C27.242 35.585 26.158 29.594 25.619 23.434C24.721 13.22 21.459 11.28 17.924 10.655C17.407 10.563 16.882 10.49 16.367 10.401Z" fill="white"/>
<path fill-rule="evenodd" clip-rule="evenodd" d="M42.5464 35.9478L38.1804 39.3838C35.4324 37.5508 35.1024 35.3448 35.1024 32.5078V19.4868C35.1024 17.8568 34.1854 16.5258 32.9814 16.0468L37.3474 12.6138C40.0934 14.4428 40.4254 16.6498 40.4254 19.4868V32.5078C40.4264 34.1358 41.3394 35.4708 42.5464 35.9478Z" fill="white"/>
<path fill-rule="evenodd" clip-rule="evenodd" d="M50.565 12.4932C53.193 12.7382 56.148 14.1112 57.479 18.0632L53.461 21.0532C52.485 18.4822 51.28 15.9432 48.17 16.3932C47.681 17.1922 47.204 19.7922 48.535 21.2682C49.993 22.8892 52.283 23.5692 54.483 24.8062C56.188 25.7662 57.894 26.8862 57.894 30.5512C57.894 31.6112 57.352 34.1302 56.085 35.0372L49.825 39.5802C46.122 38.9142 44.334 36.3332 43.253 33.6292C44.552 32.4342 46.007 31.5412 47.372 30.3772C48.078 32.5072 49.077 35.7532 52.403 35.5442C53.028 34.5452 53.485 31.6322 52.362 30.4242C50.877 28.8272 48.614 28.1262 46.414 26.8862C44.709 25.9322 43.002 24.3912 43.002 21.1452C43.002 20.0842 43.542 17.6072 45.666 15.9832L50.565 12.4932Z" fill="white"/>
<path fill-rule="evenodd" clip-rule="evenodd" d="M64.8175 18.6998C64.8275 18.9598 64.8385 19.2188 64.8385 19.4868V32.5078C64.8385 34.1368 65.7545 35.4718 66.9625 35.9478L62.5945 39.3838C59.8485 37.5508 59.5155 35.3448 59.5155 32.5078V19.4868C59.5155 17.8568 58.6025 16.5258 57.3975 16.0468L61.7635 12.6138C63.4545 13.7418 64.2225 15.0288 64.5675 16.5058L69.5615 12.6138C72.5965 13.6538 74.4075 16.4818 74.4075 19.4868V32.5078C74.4075 34.1368 75.3215 35.4718 76.5285 35.9478L72.1635 39.3838C69.4145 37.5508 69.0815 35.3448 69.0815 32.5078V19.4868C69.0815 17.5868 67.9505 17.2268 67.2515 16.7948L64.8175 18.6998Z" fill="white"/>
<path fill-rule="evenodd" clip-rule="evenodd" d="M81.7214 28.5389C81.9454 29.3959 82.2244 30.2029 82.5564 30.9249C84.4284 35.0029 89.3354 35.2939 91.4564 34.4639L85.5084 39.3329C79.6844 38.9589 76.5684 33.5879 76.5684 26.2209C76.5684 18.9809 79.6434 15.5669 82.3704 14.1609L85.9644 12.2969L90.6574 21.4189L81.7214 28.5389ZM81.2644 26.2739L85.7184 22.7269L82.4714 16.4399C81.0824 18.1809 80.6924 22.3909 81.2644 26.2739Z" fill="white"/>
<path fill-rule="evenodd" clip-rule="evenodd" d="M90.0009 16.0458L94.3659 12.6128C97.1119 14.4418 97.4449 16.6488 97.4449 19.4858V31.7548C97.4449 33.5018 98.6749 34.5038 99.7719 34.8358L101.769 33.1508V19.4868C101.769 17.8568 100.853 16.5258 99.6509 16.0468L104.014 12.6138C106.762 14.4428 107.091 16.6498 107.091 19.4868V33.0048C107.091 35.7538 108.058 38.3338 108.058 41.4658C108.058 45.0098 104.141 47.7808 98.7759 47.7808C93.9889 47.7808 89.5199 45.6308 89.4079 42.1638C89.3669 40.9298 89.7919 39.2908 91.1229 38.0008L94.9819 41.4658C93.9509 42.7468 93.8679 46.1998 98.3159 46.1998C101.395 46.1998 103.51 44.4588 103.224 41.7898C102.932 39.0448 101.937 36.8108 101.937 35.6358L97.4449 39.3978C94.3249 38.8328 92.1219 35.0878 92.1219 33.0048V19.4868C92.1229 17.8568 91.2089 16.5258 90.0009 16.0458Z" fill="white"/>
<path fill-rule="evenodd" clip-rule="evenodd" d="M118.031 35.948L113.666 39.384C110.92 37.551 110.587 35.345 110.587 32.508V8.66599C110.587 7.03799 109.839 5.66199 108.493 5.23699L112.832 1.79199C115.581 3.66399 115.91 5.82699 115.91 8.66599V32.508C115.91 34.136 116.826 35.471 118.031 35.948Z" fill="white"/>
<path fill-rule="evenodd" clip-rule="evenodd" d="M143.504 18.6998C143.516 18.9598 143.526 19.2188 143.526 19.4868V32.5078C143.526 34.1368 144.44 35.4718 145.644 35.9478L141.282 39.3838C138.537 37.5508 138.203 35.3448 138.203 32.5078V19.4868C138.203 17.8568 137.287 16.5258 136.08 16.0468L140.448 12.6138C142.138 13.7418 142.908 15.0288 143.253 16.5058L148.246 12.6138C151.28 13.6538 153.092 16.4818 153.092 19.4868V32.5078C153.092 34.1368 154.005 35.4718 155.214 35.9478L150.845 39.3838C148.103 37.5508 147.769 35.3448 147.769 32.5078V19.4868C147.769 17.5868 146.638 17.2268 145.937 16.7948L143.504 18.6998Z" fill="white"/>
<path fill-rule="evenodd" clip-rule="evenodd" d="M166.238 31.591C166.238 33.004 165.569 33.546 164.322 34.586C163.223 34.012 161.659 32.881 160.994 29.967C160.089 26.011 160.039 20.685 161.262 16.926C163.283 16.941 166.217 19.928 166.217 21.227L166.238 31.591ZM163.99 12.655L159.665 15.528C157.771 16.88 156.08 20.603 155.753 24.683C155.088 33.09 157.892 38.207 162.526 39.318L166.679 35.35C167.242 36.919 168.375 38.248 170.352 39.29L174.635 35.947C173.427 35.47 171.557 34.422 171.557 32.507V8.66599C171.557 5.82699 170.933 3.66399 168.187 1.79199L163.848 5.23699C165.194 5.66199 166.238 7.27599 166.238 8.90799L166.255 14.52C165.642 13.753 164.744 12.961 163.99 12.655Z" fill="white"/>
<path fill-rule="evenodd" clip-rule="evenodd" d="M37.2356 4.81299L32.8516 8.25999C33.7506 9.42899 35.1286 11.103 37.1736 11.103C39.2176 11.103 41.4386 9.21399 42.2086 7.02299C39.6806 7.92599 38.2986 6.17099 37.2356 4.81299Z" fill="white"/>
<path fill-rule="evenodd" clip-rule="evenodd" d="M137.647 41.5181C137.647 41.6301 137.485 41.6951 137.311 41.6951H135.388V40.3461H137.311C137.485 40.3461 137.647 40.4161 137.647 40.5251V41.5181ZM139.256 41.7281V40.3051C139.256 39.8441 138.605 39.4331 137.721 39.4331H133.794V44.9171H135.388V42.5991H137.721C138.545 42.5991 139.256 42.2411 139.256 41.7281Z" fill="white"/>
<path fill-rule="evenodd" clip-rule="evenodd" d="M147.725 43.7978C147.725 43.9098 147.566 44.0048 147.389 44.0048H145.772C145.581 44.0048 145.465 43.9098 145.465 43.8068V43.4678C145.465 43.3588 145.643 43.2908 145.816 43.2908H147.419C147.61 43.2908 147.726 43.3858 147.726 43.4848L147.725 43.7978ZM149.336 44.0428V41.7768C149.336 41.3078 148.683 40.9038 147.798 40.9038H145.392C144.582 40.9038 143.872 41.2658 143.872 41.7768V42.0738H145.465V42.0068C145.465 41.9068 145.58 41.8088 145.772 41.8088H147.389C147.566 41.8088 147.725 41.8798 147.725 41.9898V42.3928C147.625 42.3778 147.522 42.3778 147.389 42.3778H145.392C144.582 42.3778 143.872 42.7458 143.872 43.2498V44.0428C143.872 44.5138 144.511 44.9168 145.392 44.9168H147.798C148.624 44.9168 149.336 44.5468 149.336 44.0428Z" fill="white"/>
<path fill-rule="evenodd" clip-rule="evenodd" d="M158.521 42.0698V41.9868C158.521 41.8778 158.363 41.8088 158.186 41.8088H156.724C156.536 41.8088 156.417 41.9008 156.417 42.0008V44.9168H154.824V41.7768C154.824 41.3078 155.46 40.9038 156.347 40.9038H158.579C159.404 40.9038 160.116 41.2658 160.116 41.7768V42.0688L158.521 42.0698Z" fill="white"/>
<path fill-rule="evenodd" clip-rule="evenodd" d="M168.025 44.9171V44.4251L166.219 43.3861L165.972 43.5271V44.9171H164.372V39.4331H165.972V42.2371L167.486 41.3721V40.9051H169.083V41.7461L167.341 42.7441L169.636 44.0491V44.9171H168.025Z" fill="white"/>
<path fill-rule="evenodd" clip-rule="evenodd" d="M123.879 38.2021C119.247 37.0921 117.292 31.9731 117.957 23.5661C118.277 19.4871 119.975 15.7631 121.863 14.4111L126.509 11.3301C130.182 12.1631 133.013 15.1601 133.013 18.3731V31.8891C133.013 33.0971 134.465 34.2901 136.089 34.5051L131.933 38.2021C130.1 37.5931 128.727 36.1961 128.106 34.2051L123.879 38.2021ZM127.691 18.3731C127.691 16.9921 125.817 15.4101 123.814 15.3241C121.949 19.4461 121.92 25.1451 122.824 29.1021C123.487 32.0151 125.278 32.5981 126.374 33.1721C127.605 32.0531 127.691 31.8881 127.691 30.7221V18.3731Z" fill="white"/>
</g>
<defs>
<clipPath id="clip0_187_2">
<rect width="174.635" height="47.781" fill="white"/>
</clipPath>
</defs>
</svg>
