<svg width="1268" height="454" viewBox="0 0 1268 454" fill="none" xmlns="http://www.w3.org/2000/svg">
<mask id="path-1-outside-1_121_2171" maskUnits="userSpaceOnUse" x="8" y="145" width="1254" height="227" fill="black">
<rect fill="white" x="8" y="145" width="1254" height="227"/>
<path d="M122.1 368.2C104.5 368.2 88.8 365.6 75 360.4C61.4 355 49.9 347.5 40.5 337.9C31.1 328.3 23.9 316.8 18.9 303.4C14.1 290 11.7 275.2 11.7 259C11.7 243.2 14.2 228.6 19.2 215.2C24.2 201.8 31.4 190.3 40.8 180.7C50.4 170.9 61.9 163.3 75.3 157.9C88.9 152.5 104.3 149.8 121.5 149.8C133.5 149.8 144.8 151.1 155.4 153.7C166.2 156.1 175.3 159.3 182.7 163.3V200.5C175.5 195.3 166.9 190.9 156.9 187.3C147.1 183.7 136.1 181.9 123.9 181.9C113.1 181.9 103.3 183.7 94.5 187.3C85.7 190.9 78.2 196.1 72 202.9C65.8 209.7 61 217.9 57.6 227.5C54.4 236.9 52.8 247.4 52.8 259C52.8 271 54.5 281.7 57.9 291.1C61.3 300.5 66.1 308.5 72.3 315.1C78.5 321.7 86 326.8 94.8 330.4C103.8 333.8 113.7 335.5 124.5 335.5C136.7 335.5 147.7 333.7 157.5 330.1C167.3 326.5 175.7 322.2 182.7 317.2V354.4C175.1 358.4 166.1 361.7 155.7 364.3C145.3 366.9 134.1 368.2 122.1 368.2ZM249.94 366.1C243.14 366.1 236.84 365.2 231.04 363.4C225.24 361.4 220.14 358.5 215.74 354.7C211.54 350.9 208.24 346.2 205.84 340.6C203.44 334.8 202.24 328.2 202.24 320.8C202.24 314.6 203.54 308.8 206.14 303.4C208.94 297.8 212.84 293 217.84 289C223.04 284.8 229.34 281.6 236.74 279.4C244.34 277 252.94 275.8 262.54 275.8C272.74 275.8 281.74 277 289.54 279.4V268.6C289.54 260.6 287.14 254.4 282.34 250C277.74 245.4 269.74 243.1 258.34 243.1C252.34 243.1 246.74 243.6 241.54 244.6C236.54 245.6 232.14 246.8 228.34 248.2C224.54 249.4 221.34 250.6 218.74 251.8C216.34 253 214.74 253.8 213.94 254.2V226C214.74 225.6 216.54 224.9 219.34 223.9C222.14 222.7 225.64 221.6 229.84 220.6C234.24 219.4 239.34 218.4 245.14 217.6C251.14 216.8 257.64 216.4 264.64 216.4C284.64 216.4 299.84 220.5 310.24 228.7C320.84 236.7 326.14 248.8 326.14 265V323.5C326.14 329.9 327.24 334.4 329.44 337C331.64 339.6 334.54 340.9 338.14 340.9C339.94 340.9 341.44 340.8 342.64 340.6C343.84 340.2 344.64 339.9 345.04 339.7V361.9C343.44 362.7 341.54 363.4 339.34 364C337.34 364.4 334.94 364.8 332.14 365.2C329.54 365.6 326.34 365.8 322.54 365.8C314.14 365.8 307.64 364.1 303.04 360.7C298.44 357.3 295.24 352.4 293.44 346C288.44 352.6 282.64 357.6 276.04 361C269.44 364.4 260.74 366.1 249.94 366.1ZM262.24 340C268.44 340 273.84 338.7 278.44 336.1C283.04 333.5 286.74 330.2 289.54 326.2V299.5C284.74 298.1 278.54 297.4 270.94 297.4C260.14 297.4 252.34 299.6 247.54 304C242.94 308.4 240.64 313.5 240.64 319.3C240.64 326.1 242.54 331.3 246.34 334.9C250.14 338.3 255.44 340 262.24 340ZM404.864 367.6C394.664 367.6 385.164 366.5 376.364 364.3C367.764 362.1 360.964 359.6 355.964 356.8V328C362.964 332.2 370.764 335.5 379.364 337.9C388.164 340.3 396.364 341.5 403.964 341.5C421.364 341.5 430.064 336.1 430.064 325.3C430.064 322.1 429.064 319.5 427.064 317.5C425.064 315.3 422.364 313.4 418.964 311.8C415.764 310.2 411.964 308.7 407.564 307.3C403.364 305.7 399.064 304 394.664 302.2C383.264 297.6 374.364 292.1 367.964 285.7C361.564 279.3 358.364 270.3 358.364 258.7C358.364 252.1 359.764 246.2 362.564 241C365.364 235.8 369.264 231.4 374.264 227.8C379.264 224.2 385.164 221.5 391.964 219.7C398.964 217.7 406.664 216.7 415.064 216.7C424.864 216.7 433.564 217.7 441.164 219.7C448.764 221.5 454.564 223.5 458.564 225.7V253.9C453.364 250.5 446.964 247.8 439.364 245.8C431.764 243.8 424.264 242.8 416.864 242.8C401.664 242.8 394.064 247.3 394.064 256.3C394.064 259.1 394.664 261.4 395.864 263.2C397.264 264.8 399.264 266.4 401.864 268C404.464 269.4 407.664 270.9 411.464 272.5C415.264 273.9 419.664 275.6 424.664 277.6C430.664 280 436.164 282.5 441.164 285.1C446.164 287.7 450.564 290.8 454.364 294.4C458.164 297.8 461.064 301.9 463.064 306.7C465.264 311.3 466.364 316.7 466.364 322.9C466.364 336.7 460.764 347.6 449.564 355.6C438.564 363.6 423.664 367.6 404.864 367.6ZM547.249 367.6C530.849 367.6 518.549 363.7 510.349 355.9C502.149 347.9 498.049 334.9 498.049 316.9V247.3H472.549V220.3H498.049V189.1L535.249 182.2V220.3H572.449V247.3H535.249V316.9C535.249 324.7 537.049 330.3 540.649 333.7C544.449 336.9 549.849 338.5 556.849 338.5C560.449 338.5 563.649 338.2 566.449 337.6C569.249 337 571.549 336.3 573.349 335.5V364C570.749 365 567.349 365.8 563.149 366.4C558.949 367.2 553.649 367.6 547.249 367.6ZM776.768 368.2C759.168 368.2 743.468 365.6 729.668 360.4C716.068 355 704.568 347.5 695.168 337.9C685.768 328.3 678.568 316.8 673.568 303.4C668.768 290 666.368 275.2 666.368 259C666.368 243.2 668.868 228.6 673.868 215.2C678.868 201.8 686.068 190.3 695.468 180.7C705.068 170.9 716.568 163.3 729.968 157.9C743.568 152.5 758.968 149.8 776.168 149.8C788.168 149.8 799.468 151.1 810.068 153.7C820.868 156.1 829.968 159.3 837.368 163.3V200.5C830.168 195.3 821.568 190.9 811.568 187.3C801.768 183.7 790.768 181.9 778.568 181.9C767.768 181.9 757.968 183.7 749.168 187.3C740.368 190.9 732.868 196.1 726.668 202.9C720.468 209.7 715.668 217.9 712.268 227.5C709.068 236.9 707.468 247.4 707.468 259C707.468 271 709.168 281.7 712.568 291.1C715.968 300.5 720.768 308.5 726.968 315.1C733.168 321.7 740.668 326.8 749.468 330.4C758.468 333.8 768.368 335.5 779.168 335.5C791.368 335.5 802.368 333.7 812.168 330.1C821.968 326.5 830.368 322.2 837.368 317.2V354.4C829.768 358.4 820.768 361.7 810.368 364.3C799.968 366.9 788.768 368.2 776.768 368.2ZM946.364 216.7C954.364 216.7 961.464 218 967.664 220.6C973.864 223.2 978.964 226.9 982.964 231.7C986.964 236.5 989.964 242.3 991.964 249.1C994.164 255.7 995.264 263 995.264 271V364H958.064V277.9C958.064 266.1 955.664 258 950.864 253.6C946.064 249.2 939.864 247 932.264 247C925.064 247 918.864 248.8 913.664 252.4C908.664 255.8 904.264 260 900.464 265V364H863.264V148H900.464V241.9C902.664 238.9 905.164 235.9 907.964 232.9C910.764 229.9 913.964 227.2 917.564 224.8C921.364 222.4 925.564 220.5 930.164 219.1C934.964 217.5 940.364 216.7 946.364 216.7ZM1064.43 366.1C1057.63 366.1 1051.33 365.2 1045.53 363.4C1039.73 361.4 1034.63 358.5 1030.23 354.7C1026.03 350.9 1022.73 346.2 1020.33 340.6C1017.93 334.8 1016.73 328.2 1016.73 320.8C1016.73 314.6 1018.03 308.8 1020.63 303.4C1023.43 297.8 1027.33 293 1032.33 289C1037.53 284.8 1043.83 281.6 1051.23 279.4C1058.83 277 1067.43 275.8 1077.03 275.8C1087.23 275.8 1096.23 277 1104.03 279.4V268.6C1104.03 260.6 1101.63 254.4 1096.83 250C1092.23 245.4 1084.23 243.1 1072.83 243.1C1066.83 243.1 1061.23 243.6 1056.03 244.6C1051.03 245.6 1046.63 246.8 1042.83 248.2C1039.03 249.4 1035.83 250.6 1033.23 251.8C1030.83 253 1029.23 253.8 1028.43 254.2V226C1029.23 225.6 1031.03 224.9 1033.83 223.9C1036.63 222.7 1040.13 221.6 1044.33 220.6C1048.73 219.4 1053.83 218.4 1059.63 217.6C1065.63 216.8 1072.13 216.4 1079.13 216.4C1099.13 216.4 1114.33 220.5 1124.73 228.7C1135.33 236.7 1140.63 248.8 1140.63 265V323.5C1140.63 329.9 1141.73 334.4 1143.93 337C1146.13 339.6 1149.03 340.9 1152.63 340.9C1154.43 340.9 1155.93 340.8 1157.13 340.6C1158.33 340.2 1159.13 339.9 1159.53 339.7V361.9C1157.93 362.7 1156.03 363.4 1153.83 364C1151.83 364.4 1149.43 364.8 1146.63 365.2C1144.03 365.6 1140.83 365.8 1137.03 365.8C1128.63 365.8 1122.13 364.1 1117.53 360.7C1112.93 357.3 1109.73 352.4 1107.93 346C1102.93 352.6 1097.13 357.6 1090.53 361C1083.93 364.4 1075.23 366.1 1064.43 366.1ZM1076.73 340C1082.93 340 1088.33 338.7 1092.93 336.1C1097.53 333.5 1101.23 330.2 1104.03 326.2V299.5C1099.23 298.1 1093.03 297.4 1085.43 297.4C1074.63 297.4 1066.83 299.6 1062.03 304C1057.43 308.4 1055.13 313.5 1055.13 319.3C1055.13 326.1 1057.03 331.3 1060.83 334.9C1064.63 338.3 1069.93 340 1076.73 340ZM1232.68 367.6C1216.28 367.6 1203.98 363.7 1195.78 355.9C1187.58 347.9 1183.48 334.9 1183.48 316.9V247.3H1157.98V220.3H1183.48V189.1L1220.68 182.2V220.3H1257.88V247.3H1220.68V316.9C1220.68 324.7 1222.48 330.3 1226.08 333.7C1229.88 336.9 1235.28 338.5 1242.28 338.5C1245.88 338.5 1249.08 338.2 1251.88 337.6C1254.68 337 1256.98 336.3 1258.78 335.5V364C1256.18 365 1252.78 365.8 1248.58 366.4C1244.38 367.2 1239.08 367.6 1232.68 367.6Z"/>
</mask>
<path d="M122.1 368.2C104.5 368.2 88.8 365.6 75 360.4C61.4 355 49.9 347.5 40.5 337.9C31.1 328.3 23.9 316.8 18.9 303.4C14.1 290 11.7 275.2 11.7 259C11.7 243.2 14.2 228.6 19.2 215.2C24.2 201.8 31.4 190.3 40.8 180.7C50.4 170.9 61.9 163.3 75.3 157.9C88.9 152.5 104.3 149.8 121.5 149.8C133.5 149.8 144.8 151.1 155.4 153.7C166.2 156.1 175.3 159.3 182.7 163.3V200.5C175.5 195.3 166.9 190.9 156.9 187.3C147.1 183.7 136.1 181.9 123.9 181.9C113.1 181.9 103.3 183.7 94.5 187.3C85.7 190.9 78.2 196.1 72 202.9C65.8 209.7 61 217.9 57.6 227.5C54.4 236.9 52.8 247.4 52.8 259C52.8 271 54.5 281.7 57.9 291.1C61.3 300.5 66.1 308.5 72.3 315.1C78.5 321.7 86 326.8 94.8 330.4C103.8 333.8 113.7 335.5 124.5 335.5C136.7 335.5 147.7 333.7 157.5 330.1C167.3 326.5 175.7 322.2 182.7 317.2V354.4C175.1 358.4 166.1 361.7 155.7 364.3C145.3 366.9 134.1 368.2 122.1 368.2ZM249.94 366.1C243.14 366.1 236.84 365.2 231.04 363.4C225.24 361.4 220.14 358.5 215.74 354.7C211.54 350.9 208.24 346.2 205.84 340.6C203.44 334.8 202.24 328.2 202.24 320.8C202.24 314.6 203.54 308.8 206.14 303.4C208.94 297.8 212.84 293 217.84 289C223.04 284.8 229.34 281.6 236.74 279.4C244.34 277 252.94 275.8 262.54 275.8C272.74 275.8 281.74 277 289.54 279.4V268.6C289.54 260.6 287.14 254.4 282.34 250C277.74 245.4 269.74 243.1 258.34 243.1C252.34 243.1 246.74 243.6 241.54 244.6C236.54 245.6 232.14 246.8 228.34 248.2C224.54 249.4 221.34 250.6 218.74 251.8C216.34 253 214.74 253.8 213.94 254.2V226C214.74 225.6 216.54 224.9 219.34 223.9C222.14 222.7 225.64 221.6 229.84 220.6C234.24 219.4 239.34 218.4 245.14 217.6C251.14 216.8 257.64 216.4 264.64 216.4C284.64 216.4 299.84 220.5 310.24 228.7C320.84 236.7 326.14 248.8 326.14 265V323.5C326.14 329.9 327.24 334.4 329.44 337C331.64 339.6 334.54 340.9 338.14 340.9C339.94 340.9 341.44 340.8 342.64 340.6C343.84 340.2 344.64 339.9 345.04 339.7V361.9C343.44 362.7 341.54 363.4 339.34 364C337.34 364.4 334.94 364.8 332.14 365.2C329.54 365.6 326.34 365.8 322.54 365.8C314.14 365.8 307.64 364.1 303.04 360.7C298.44 357.3 295.24 352.4 293.44 346C288.44 352.6 282.64 357.6 276.04 361C269.44 364.4 260.74 366.1 249.94 366.1ZM262.24 340C268.44 340 273.84 338.7 278.44 336.1C283.04 333.5 286.74 330.2 289.54 326.2V299.5C284.74 298.1 278.54 297.4 270.94 297.4C260.14 297.4 252.34 299.6 247.54 304C242.94 308.4 240.64 313.5 240.64 319.3C240.64 326.1 242.54 331.3 246.34 334.9C250.14 338.3 255.44 340 262.24 340ZM404.864 367.6C394.664 367.6 385.164 366.5 376.364 364.3C367.764 362.1 360.964 359.6 355.964 356.8V328C362.964 332.2 370.764 335.5 379.364 337.9C388.164 340.3 396.364 341.5 403.964 341.5C421.364 341.5 430.064 336.1 430.064 325.3C430.064 322.1 429.064 319.5 427.064 317.5C425.064 315.3 422.364 313.4 418.964 311.8C415.764 310.2 411.964 308.7 407.564 307.3C403.364 305.7 399.064 304 394.664 302.2C383.264 297.6 374.364 292.1 367.964 285.7C361.564 279.3 358.364 270.3 358.364 258.7C358.364 252.1 359.764 246.2 362.564 241C365.364 235.8 369.264 231.4 374.264 227.8C379.264 224.2 385.164 221.5 391.964 219.7C398.964 217.7 406.664 216.7 415.064 216.7C424.864 216.7 433.564 217.7 441.164 219.7C448.764 221.5 454.564 223.5 458.564 225.7V253.9C453.364 250.5 446.964 247.8 439.364 245.8C431.764 243.8 424.264 242.8 416.864 242.8C401.664 242.8 394.064 247.3 394.064 256.3C394.064 259.1 394.664 261.4 395.864 263.2C397.264 264.8 399.264 266.4 401.864 268C404.464 269.4 407.664 270.9 411.464 272.5C415.264 273.9 419.664 275.6 424.664 277.6C430.664 280 436.164 282.5 441.164 285.1C446.164 287.7 450.564 290.8 454.364 294.4C458.164 297.8 461.064 301.9 463.064 306.7C465.264 311.3 466.364 316.7 466.364 322.9C466.364 336.7 460.764 347.6 449.564 355.6C438.564 363.6 423.664 367.6 404.864 367.6ZM547.249 367.6C530.849 367.6 518.549 363.7 510.349 355.9C502.149 347.9 498.049 334.9 498.049 316.9V247.3H472.549V220.3H498.049V189.1L535.249 182.2V220.3H572.449V247.3H535.249V316.9C535.249 324.7 537.049 330.3 540.649 333.7C544.449 336.9 549.849 338.5 556.849 338.5C560.449 338.5 563.649 338.2 566.449 337.6C569.249 337 571.549 336.3 573.349 335.5V364C570.749 365 567.349 365.8 563.149 366.4C558.949 367.2 553.649 367.6 547.249 367.6ZM776.768 368.2C759.168 368.2 743.468 365.6 729.668 360.4C716.068 355 704.568 347.5 695.168 337.9C685.768 328.3 678.568 316.8 673.568 303.4C668.768 290 666.368 275.2 666.368 259C666.368 243.2 668.868 228.6 673.868 215.2C678.868 201.8 686.068 190.3 695.468 180.7C705.068 170.9 716.568 163.3 729.968 157.9C743.568 152.5 758.968 149.8 776.168 149.8C788.168 149.8 799.468 151.1 810.068 153.7C820.868 156.1 829.968 159.3 837.368 163.3V200.5C830.168 195.3 821.568 190.9 811.568 187.3C801.768 183.7 790.768 181.9 778.568 181.9C767.768 181.9 757.968 183.7 749.168 187.3C740.368 190.9 732.868 196.1 726.668 202.9C720.468 209.7 715.668 217.9 712.268 227.5C709.068 236.9 707.468 247.4 707.468 259C707.468 271 709.168 281.7 712.568 291.1C715.968 300.5 720.768 308.5 726.968 315.1C733.168 321.7 740.668 326.8 749.468 330.4C758.468 333.8 768.368 335.5 779.168 335.5C791.368 335.5 802.368 333.7 812.168 330.1C821.968 326.5 830.368 322.2 837.368 317.2V354.4C829.768 358.4 820.768 361.7 810.368 364.3C799.968 366.9 788.768 368.2 776.768 368.2ZM946.364 216.7C954.364 216.7 961.464 218 967.664 220.6C973.864 223.2 978.964 226.9 982.964 231.7C986.964 236.5 989.964 242.3 991.964 249.1C994.164 255.7 995.264 263 995.264 271V364H958.064V277.9C958.064 266.1 955.664 258 950.864 253.6C946.064 249.2 939.864 247 932.264 247C925.064 247 918.864 248.8 913.664 252.4C908.664 255.8 904.264 260 900.464 265V364H863.264V148H900.464V241.9C902.664 238.9 905.164 235.9 907.964 232.9C910.764 229.9 913.964 227.2 917.564 224.8C921.364 222.4 925.564 220.5 930.164 219.1C934.964 217.5 940.364 216.7 946.364 216.7ZM1064.43 366.1C1057.63 366.1 1051.33 365.2 1045.53 363.4C1039.73 361.4 1034.63 358.5 1030.23 354.7C1026.03 350.9 1022.73 346.2 1020.33 340.6C1017.93 334.8 1016.73 328.2 1016.73 320.8C1016.73 314.6 1018.03 308.8 1020.63 303.4C1023.43 297.8 1027.33 293 1032.33 289C1037.53 284.8 1043.83 281.6 1051.23 279.4C1058.83 277 1067.43 275.8 1077.03 275.8C1087.23 275.8 1096.23 277 1104.03 279.4V268.6C1104.03 260.6 1101.63 254.4 1096.83 250C1092.23 245.4 1084.23 243.1 1072.83 243.1C1066.83 243.1 1061.23 243.6 1056.03 244.6C1051.03 245.6 1046.63 246.8 1042.83 248.2C1039.03 249.4 1035.83 250.6 1033.23 251.8C1030.83 253 1029.23 253.8 1028.43 254.2V226C1029.23 225.6 1031.03 224.9 1033.83 223.9C1036.63 222.7 1040.13 221.6 1044.33 220.6C1048.73 219.4 1053.83 218.4 1059.63 217.6C1065.63 216.8 1072.13 216.4 1079.13 216.4C1099.13 216.4 1114.33 220.5 1124.73 228.7C1135.33 236.7 1140.63 248.8 1140.63 265V323.5C1140.63 329.9 1141.73 334.4 1143.93 337C1146.13 339.6 1149.03 340.9 1152.63 340.9C1154.43 340.9 1155.93 340.8 1157.13 340.6C1158.33 340.2 1159.13 339.9 1159.53 339.7V361.9C1157.93 362.7 1156.03 363.4 1153.83 364C1151.83 364.4 1149.43 364.8 1146.63 365.2C1144.03 365.6 1140.83 365.8 1137.03 365.8C1128.63 365.8 1122.13 364.1 1117.53 360.7C1112.93 357.3 1109.73 352.4 1107.93 346C1102.93 352.6 1097.13 357.6 1090.53 361C1083.93 364.4 1075.23 366.1 1064.43 366.1ZM1076.73 340C1082.93 340 1088.33 338.7 1092.93 336.1C1097.53 333.5 1101.23 330.2 1104.03 326.2V299.5C1099.23 298.1 1093.03 297.4 1085.43 297.4C1074.63 297.4 1066.83 299.6 1062.03 304C1057.43 308.4 1055.13 313.5 1055.13 319.3C1055.13 326.1 1057.03 331.3 1060.83 334.9C1064.63 338.3 1069.93 340 1076.73 340ZM1232.68 367.6C1216.28 367.6 1203.98 363.7 1195.78 355.9C1187.58 347.9 1183.48 334.9 1183.48 316.9V247.3H1157.98V220.3H1183.48V189.1L1220.68 182.2V220.3H1257.88V247.3H1220.68V316.9C1220.68 324.7 1222.48 330.3 1226.08 333.7C1229.88 336.9 1235.28 338.5 1242.28 338.5C1245.88 338.5 1249.08 338.2 1251.88 337.6C1254.68 337 1256.98 336.3 1258.78 335.5V364C1256.18 365 1252.78 365.8 1248.58 366.4C1244.38 367.2 1239.08 367.6 1232.68 367.6Z" fill="white"/>
<path d="M75 360.4L73.8929 363.188L73.9174 363.198L73.9422 363.207L75 360.4ZM40.5 337.9L38.3565 339.999L40.5 337.9ZM18.9 303.4L16.0757 304.412L16.0824 304.43L16.0893 304.449L18.9 303.4ZM19.2 215.2L22.0107 216.249L19.2 215.2ZM40.8 180.7L38.6569 178.601L38.6565 178.601L40.8 180.7ZM75.3 157.9L74.1929 155.112L74.1858 155.115L74.1787 155.117L75.3 157.9ZM155.4 153.7L154.685 156.614L154.717 156.621L154.749 156.629L155.4 153.7ZM182.7 163.3H185.7V161.511L184.127 160.661L182.7 163.3ZM182.7 200.5L180.944 202.932L185.7 206.367V200.5H182.7ZM156.9 187.3L155.866 190.116L155.875 190.119L155.884 190.123L156.9 187.3ZM72 202.9L74.2169 204.921V204.921L72 202.9ZM57.6 227.5L54.7721 226.498L54.766 226.516L54.7601 226.533L57.6 227.5ZM57.9 291.1L55.0789 292.12L57.9 291.1ZM72.3 315.1L70.1135 317.154L72.3 315.1ZM94.8 330.4L93.6641 333.177L93.7018 333.192L93.7398 333.206L94.8 330.4ZM157.5 330.1L158.534 332.916L157.5 330.1ZM182.7 317.2H185.7V311.37L180.956 314.759L182.7 317.2ZM182.7 354.4L184.097 357.055L185.7 356.211V354.4H182.7ZM155.7 364.3L156.428 367.21L155.7 364.3ZM122.1 365.2C104.793 365.2 89.4613 362.643 76.0578 357.593L73.9422 363.207C88.1387 368.557 104.207 371.2 122.1 371.2V365.2ZM76.1071 357.612C62.8619 352.353 51.7247 345.076 42.6435 335.801L38.3565 339.999C48.0753 349.924 59.9381 357.647 73.8929 363.188L76.1071 357.612ZM42.6435 335.801C33.5555 326.52 26.5738 315.384 21.7107 302.351L16.0893 304.449C21.2262 318.216 28.6445 330.08 38.3565 339.999L42.6435 335.801ZM21.7243 302.388C17.0554 289.354 14.7 274.902 14.7 259H8.7C8.7 275.498 11.1446 290.646 16.0757 304.412L21.7243 302.388ZM14.7 259C14.7 243.521 17.1483 229.28 22.0107 216.249L16.3893 214.151C11.2517 227.92 8.7 242.879 8.7 259H14.7ZM22.0107 216.249C26.8738 203.216 33.8555 192.08 42.9435 182.799L38.6565 178.601C28.9445 188.52 21.5262 200.384 16.3893 214.151L22.0107 216.249ZM42.9431 182.799C52.238 173.311 63.3846 165.936 76.4213 160.683L74.1787 155.117C60.4154 160.664 48.562 168.489 38.6569 178.601L42.9431 182.799ZM76.4071 160.688C89.5987 155.45 104.614 152.8 121.5 152.8V146.8C103.986 146.8 88.2013 149.55 74.1929 155.112L76.4071 160.688ZM121.5 152.8C133.283 152.8 144.341 154.076 154.685 156.614L156.115 150.786C145.259 148.124 133.717 146.8 121.5 146.8V152.8ZM154.749 156.629C165.358 158.986 174.18 162.105 181.273 165.939L184.127 160.661C176.42 156.495 167.042 153.214 156.051 150.771L154.749 156.629ZM179.7 163.3V200.5H185.7V163.3H179.7ZM184.456 198.068C176.99 192.675 168.13 188.154 157.916 184.477L155.884 190.123C165.67 193.646 174.01 197.925 180.944 202.932L184.456 198.068ZM157.934 184.484C147.752 180.744 136.395 178.9 123.9 178.9V184.9C135.805 184.9 146.448 186.656 155.866 190.116L157.934 184.484ZM123.9 178.9C112.763 178.9 102.57 180.757 93.3641 184.523L95.6359 190.077C104.03 186.643 113.437 184.9 123.9 184.9V178.9ZM93.3641 184.523C84.1663 188.286 76.2931 193.739 69.7831 200.879L74.2169 204.921C80.1069 198.461 87.2337 193.514 95.6359 190.077L93.3641 184.523ZM69.7831 200.879C63.286 208.005 58.2914 216.562 54.7721 226.498L60.4279 228.502C63.7086 219.238 68.314 211.395 74.2169 204.921L69.7831 200.879ZM54.7601 226.533C51.4379 236.292 49.8 247.125 49.8 259H55.8C55.8 247.675 57.3621 237.508 60.4399 228.467L54.7601 226.533ZM49.8 259C49.8 271.28 51.5395 282.335 55.0789 292.12L60.7211 290.08C57.4605 281.065 55.8 270.72 55.8 259H49.8ZM55.0789 292.12C58.6033 301.864 63.606 310.227 70.1135 317.154L74.4865 313.046C68.594 306.773 63.9967 299.136 60.7211 290.08L55.0789 292.12ZM70.1135 317.154C76.6225 324.083 84.4865 329.422 93.6641 333.177L95.9359 327.623C87.5135 324.178 80.3775 319.317 74.4865 313.046L70.1135 317.154ZM93.7398 333.206C103.118 336.749 113.382 338.5 124.5 338.5V332.5C114.018 332.5 104.482 330.851 95.8602 327.594L93.7398 333.206ZM124.5 338.5C136.995 338.5 148.352 336.656 158.534 332.916L156.466 327.284C147.048 330.744 136.405 332.5 124.5 332.5V338.5ZM158.534 332.916C168.535 329.242 177.184 324.826 184.444 319.641L180.956 314.759C174.216 319.574 166.065 323.758 156.466 327.284L158.534 332.916ZM179.7 317.2V354.4H185.7V317.2H179.7ZM181.303 351.745C173.96 355.61 165.195 358.834 154.972 361.39L156.428 367.21C167.005 364.566 176.24 361.19 184.097 357.055L181.303 351.745ZM154.972 361.39C144.837 363.923 133.883 365.2 122.1 365.2V371.2C134.317 371.2 145.763 369.876 156.428 367.21L154.972 361.39ZM231.04 363.4L230.062 366.236L230.106 366.251L230.151 366.265L231.04 363.4ZM215.74 354.7L213.727 356.925L213.753 356.948L213.779 356.97L215.74 354.7ZM205.84 340.6L203.068 341.747L203.075 341.764L203.082 341.782L205.84 340.6ZM206.14 303.4L203.457 302.058L203.447 302.078L203.437 302.099L206.14 303.4ZM217.84 289L219.714 291.343L219.725 291.334L217.84 289ZM236.74 279.4L237.595 282.276L237.619 282.268L237.643 282.261L236.74 279.4ZM289.54 279.4L288.658 282.267L292.54 283.462V279.4H289.54ZM282.34 250L280.219 252.121L280.265 252.167L280.313 252.211L282.34 250ZM241.54 244.6L240.973 241.654L240.962 241.656L240.951 241.658L241.54 244.6ZM228.34 248.2L229.243 251.061L229.311 251.039L229.377 251.015L228.34 248.2ZM218.74 251.8L217.483 249.076L217.44 249.096L217.398 249.117L218.74 251.8ZM213.94 254.2H210.94V259.054L215.281 256.883L213.94 254.2ZM213.94 226L212.598 223.317L210.94 224.146V226H213.94ZM219.34 223.9L220.349 226.725L220.436 226.694L220.522 226.657L219.34 223.9ZM229.84 220.6L230.535 223.518L230.582 223.507L230.629 223.494L229.84 220.6ZM245.14 217.6L244.743 214.626L244.73 214.628L245.14 217.6ZM310.24 228.7L308.382 231.056L308.407 231.075L308.433 231.095L310.24 228.7ZM329.44 337L327.15 338.938L329.44 337ZM342.64 340.6L343.133 343.559L343.365 343.52L343.589 343.446L342.64 340.6ZM345.04 339.7H348.04V334.846L343.698 337.017L345.04 339.7ZM345.04 361.9L346.382 364.583L348.04 363.754V361.9H345.04ZM339.34 364L339.928 366.942L340.03 366.921L340.129 366.894L339.34 364ZM332.14 365.2L331.716 362.23L331.7 362.232L331.684 362.235L332.14 365.2ZM303.04 360.7L304.823 358.287L303.04 360.7ZM293.44 346L296.328 345.188L294.694 339.377L291.049 344.188L293.44 346ZM276.04 361L277.414 363.667L276.04 361ZM278.44 336.1L279.916 338.712L278.44 336.1ZM289.54 326.2L291.998 327.92L292.54 327.146V326.2H289.54ZM289.54 299.5H292.54V297.25L290.38 296.62L289.54 299.5ZM247.54 304L245.513 301.789L245.489 301.81L245.466 301.832L247.54 304ZM246.34 334.9L244.277 337.078L244.308 337.107L244.339 337.136L246.34 334.9ZM249.94 363.1C243.406 363.1 237.409 362.235 231.929 360.535L230.151 366.265C236.271 368.165 242.874 369.1 249.94 369.1V363.1ZM232.018 360.564C226.558 358.681 221.796 355.967 217.701 352.43L213.779 356.97C218.483 361.033 223.921 364.119 230.062 366.236L232.018 360.564ZM217.753 352.475C213.897 348.987 210.84 344.652 208.597 339.418L203.082 341.782C205.64 347.748 209.183 352.813 213.727 356.925L217.753 352.475ZM208.612 339.453C206.387 334.076 205.24 327.876 205.24 320.8H199.24C199.24 328.524 200.493 335.524 203.068 341.747L208.612 339.453ZM205.24 320.8C205.24 315.035 206.445 309.681 208.843 304.701L203.437 302.099C200.635 307.919 199.24 314.165 199.24 320.8H205.24ZM208.823 304.742C211.424 299.539 215.045 295.078 219.714 291.343L215.966 286.657C210.635 290.922 206.455 296.061 203.457 302.058L208.823 304.742ZM219.725 291.334C224.577 287.415 230.513 284.381 237.595 282.276L235.885 276.524C228.167 278.819 221.503 282.185 215.955 286.666L219.725 291.334ZM237.643 282.261C244.898 279.97 253.186 278.8 262.54 278.8V272.8C252.694 272.8 243.781 274.03 235.836 276.539L237.643 282.261ZM262.54 278.8C272.512 278.8 281.204 279.974 288.658 282.267L290.422 276.533C282.275 274.026 272.968 272.8 262.54 272.8V278.8ZM292.54 279.4V268.6H286.54V279.4H292.54ZM292.54 268.6C292.54 259.966 289.925 252.883 284.367 247.789L280.313 252.211C284.355 255.917 286.54 261.234 286.54 268.6H292.54ZM284.461 247.879C279.001 242.419 269.982 240.1 258.34 240.1V246.1C269.498 246.1 276.479 248.381 280.219 252.121L284.461 247.879ZM258.34 240.1C252.174 240.1 246.383 240.614 240.973 241.654L242.106 247.546C247.097 246.586 252.505 246.1 258.34 246.1V240.1ZM240.951 241.658C235.836 242.681 231.281 243.919 227.303 245.385L229.377 251.015C232.999 249.681 237.244 248.519 242.128 247.542L240.951 241.658ZM227.436 245.339C223.559 246.564 220.232 247.807 217.483 249.076L219.997 254.524C222.447 253.393 225.521 252.236 229.243 251.061L227.436 245.339ZM217.398 249.117C214.998 250.317 213.398 251.117 212.598 251.517L215.281 256.883C216.081 256.483 217.681 255.683 220.081 254.483L217.398 249.117ZM216.94 254.2V226H210.94V254.2H216.94ZM215.281 228.683C215.889 228.38 217.507 227.74 220.349 226.725L218.331 221.075C215.573 222.06 213.591 222.82 212.598 223.317L215.281 228.683ZM220.522 226.657C223.114 225.546 226.438 224.494 230.535 223.518L229.145 217.682C224.841 218.706 221.165 219.854 218.158 221.143L220.522 226.657ZM230.629 223.494C234.875 222.336 239.844 221.359 245.55 220.572L244.73 214.628C238.836 215.441 233.604 216.464 229.05 217.706L230.629 223.494ZM245.536 220.574C251.386 219.794 257.752 219.4 264.64 219.4V213.4C257.527 213.4 250.893 213.806 244.743 214.626L245.536 220.574ZM264.64 219.4C284.294 219.4 298.722 223.439 308.382 231.056L312.097 226.344C300.958 217.561 284.986 213.4 264.64 213.4V219.4ZM308.433 231.095C318.114 238.402 323.14 249.51 323.14 265H329.14C329.14 248.09 323.565 234.998 312.047 226.305L308.433 231.095ZM323.14 265V323.5H329.14V265H323.14ZM323.14 323.5C323.14 330.064 324.232 335.49 327.15 338.938L331.73 335.062C330.248 333.31 329.14 329.736 329.14 323.5H323.14ZM327.15 338.938C329.956 342.254 333.715 343.9 338.14 343.9V337.9C335.365 337.9 333.324 336.946 331.73 335.062L327.15 338.938ZM338.14 343.9C340.035 343.9 341.713 343.796 343.133 343.559L342.147 337.641C341.167 337.804 339.845 337.9 338.14 337.9V343.9ZM343.589 343.446C344.763 343.054 345.762 342.693 346.382 342.383L343.698 337.017C343.518 337.107 342.916 337.346 341.691 337.754L343.589 343.446ZM342.04 339.7V361.9H348.04V339.7H342.04ZM343.698 359.217C342.315 359.908 340.609 360.544 338.551 361.106L340.129 366.894C342.471 366.256 344.564 365.492 346.382 364.583L343.698 359.217ZM338.751 361.058C336.822 361.444 334.48 361.835 331.716 362.23L332.564 368.17C335.4 367.765 337.858 367.356 339.928 366.942L338.751 361.058ZM331.684 362.235C329.285 362.604 326.248 362.8 322.54 362.8V368.8C326.432 368.8 329.795 368.596 332.596 368.165L331.684 362.235ZM322.54 362.8C314.494 362.8 308.715 361.164 304.823 358.287L301.257 363.113C306.564 367.035 313.786 368.8 322.54 368.8V362.8ZM304.823 358.287C300.843 355.346 297.978 351.055 296.328 345.188L290.552 346.812C292.502 353.745 296.037 359.254 301.257 363.113L304.823 358.287ZM291.049 344.188C286.288 350.472 280.823 355.161 274.666 358.333L277.414 363.667C284.456 360.039 290.592 354.728 295.831 347.812L291.049 344.188ZM274.666 358.333C268.64 361.437 260.464 363.1 249.94 363.1V369.1C261.016 369.1 270.24 367.363 277.414 363.667L274.666 358.333ZM262.24 343C268.867 343 274.793 341.607 279.916 338.712L276.964 333.488C272.887 335.793 268.013 337 262.24 337V343ZM279.916 338.712C284.873 335.91 288.92 332.316 291.998 327.92L287.082 324.48C284.559 328.084 281.207 331.09 276.964 333.488L279.916 338.712ZM292.54 326.2V299.5H286.54V326.2H292.54ZM290.38 296.62C285.204 295.111 278.693 294.4 270.94 294.4V300.4C278.387 300.4 284.275 301.089 288.7 302.38L290.38 296.62ZM270.94 294.4C259.852 294.4 251.132 296.638 245.513 301.789L249.567 306.211C253.548 302.562 260.428 300.4 270.94 300.4V294.4ZM245.466 301.832C240.338 306.737 237.64 312.597 237.64 319.3H243.64C243.64 314.403 245.541 310.063 249.614 306.168L245.466 301.832ZM237.64 319.3C237.64 326.665 239.713 332.755 244.277 337.078L248.403 332.722C245.366 329.845 243.64 325.535 243.64 319.3H237.64ZM244.339 337.136C248.851 341.172 254.952 343 262.24 343V337C255.928 337 251.429 335.428 248.34 332.664L244.339 337.136ZM376.364 364.3L375.621 367.206L375.629 367.208L375.636 367.21L376.364 364.3ZM355.964 356.8H352.964V358.558L354.498 359.418L355.964 356.8ZM355.964 328L357.508 325.428L352.964 322.701V328H355.964ZM379.364 337.9L378.558 340.79L378.566 340.792L378.575 340.794L379.364 337.9ZM427.064 317.5L424.844 319.518L424.892 319.571L424.943 319.621L427.064 317.5ZM418.964 311.8L417.622 314.483L417.654 314.499L417.687 314.514L418.964 311.8ZM407.564 307.3L406.496 310.103L406.574 310.133L406.654 310.159L407.564 307.3ZM394.664 302.2L395.8 299.423L395.793 299.421L395.787 299.418L394.664 302.2ZM367.964 285.7L365.843 287.821L367.964 285.7ZM362.564 241L359.923 239.578L362.564 241ZM391.964 219.7L392.732 222.6L392.76 222.593L392.788 222.585L391.964 219.7ZM441.164 219.7L440.401 222.601L440.437 222.611L440.473 222.619L441.164 219.7ZM458.564 225.7H461.564V223.926L460.01 223.071L458.564 225.7ZM458.564 253.9L456.922 256.411L461.564 259.446V253.9H458.564ZM439.364 245.8L440.128 242.899L439.364 245.8ZM395.864 263.2L393.368 264.864L393.477 265.028L393.606 265.176L395.864 263.2ZM401.864 268L400.292 270.555L400.366 270.6L400.442 270.641L401.864 268ZM411.464 272.5L410.3 275.265L410.363 275.291L410.427 275.315L411.464 272.5ZM424.664 277.6L425.778 274.815L424.664 277.6ZM454.364 294.4L452.301 296.578L452.332 296.607L452.364 296.636L454.364 294.4ZM463.064 306.7L460.295 307.854L460.324 307.925L460.358 307.994L463.064 306.7ZM449.564 355.6L447.82 353.159L447.81 353.166L447.8 353.174L449.564 355.6ZM404.864 364.6C394.879 364.6 385.626 363.523 377.092 361.39L375.636 367.21C384.702 369.477 394.449 370.6 404.864 370.6V364.6ZM377.108 361.394C368.638 359.227 362.114 356.806 357.43 354.182L354.498 359.418C359.814 362.394 366.89 364.973 375.621 367.206L377.108 361.394ZM358.964 356.8V328H352.964V356.8H358.964ZM354.421 330.572C361.671 334.923 369.723 338.324 378.558 340.79L380.17 335.01C371.805 332.676 364.257 329.477 357.508 325.428L354.421 330.572ZM378.575 340.794C387.582 343.251 396.05 344.5 403.964 344.5V338.5C396.678 338.5 388.746 337.349 380.153 335.006L378.575 340.794ZM403.964 344.5C412.877 344.5 420.069 343.134 425.121 339.999C430.41 336.716 433.064 331.669 433.064 325.3H427.064C427.064 329.731 425.368 332.784 421.957 334.901C418.309 337.166 412.451 338.5 403.964 338.5V344.5ZM433.064 325.3C433.064 321.418 431.824 318.017 429.185 315.379L424.943 319.621C426.304 320.983 427.064 322.782 427.064 325.3H433.064ZM429.284 315.482C426.959 312.924 423.908 310.811 420.241 309.086L417.687 314.514C420.82 315.989 423.169 317.676 424.844 319.518L429.284 315.482ZM420.306 309.117C416.933 307.43 412.982 305.876 408.474 304.441L406.654 310.159C410.946 311.524 414.595 312.97 417.622 314.483L420.306 309.117ZM408.632 304.497C404.456 302.906 400.179 301.215 395.8 299.423L393.528 304.977C397.949 306.785 402.272 308.494 406.496 310.103L408.632 304.497ZM395.787 299.418C384.635 294.918 376.118 289.611 370.085 283.579L365.843 287.821C372.61 294.589 381.893 300.282 393.541 304.982L395.787 299.418ZM370.085 283.579C364.395 277.888 361.364 269.739 361.364 258.7H355.364C355.364 270.861 358.733 280.712 365.843 287.821L370.085 283.579ZM361.364 258.7C361.364 252.537 362.667 247.136 365.205 242.422L359.923 239.578C356.861 245.264 355.364 251.663 355.364 258.7H361.364ZM365.205 242.422C367.78 237.64 371.37 233.581 376.017 230.235L372.511 225.365C367.158 229.219 362.948 233.96 359.923 239.578L365.205 242.422ZM376.017 230.235C380.681 226.877 386.236 224.32 392.732 222.6L391.196 216.8C384.092 218.68 377.847 221.523 372.511 225.365L376.017 230.235ZM392.788 222.585C399.483 220.672 406.901 219.7 415.064 219.7V213.7C406.427 213.7 398.445 214.728 391.14 216.815L392.788 222.585ZM415.064 219.7C424.667 219.7 433.102 220.681 440.401 222.601L441.928 216.799C434.026 214.719 425.061 213.7 415.064 213.7V219.7ZM440.473 222.619C447.968 224.394 453.465 226.319 457.118 228.329L460.01 223.071C455.663 220.681 449.561 218.606 441.855 216.781L440.473 222.619ZM455.564 225.7V253.9H461.564V225.7H455.564ZM460.206 251.389C454.675 247.773 447.961 244.96 440.128 242.899L438.601 248.701C445.967 250.64 452.053 253.227 456.922 256.411L460.206 251.389ZM440.128 242.899C432.294 240.837 424.537 239.8 416.864 239.8V245.8C423.991 245.8 431.234 246.763 438.601 248.701L440.128 242.899ZM416.864 239.8C409.066 239.8 402.722 240.937 398.236 243.594C393.502 246.396 391.064 250.765 391.064 256.3H397.064C397.064 252.835 398.426 250.454 401.293 248.756C404.406 246.913 409.462 245.8 416.864 245.8V239.8ZM391.064 256.3C391.064 259.52 391.755 262.445 393.368 264.864L398.36 261.536C397.573 260.355 397.064 258.68 397.064 256.3H391.064ZM393.606 265.176C395.27 267.077 397.537 268.86 400.292 270.555L403.436 265.445C400.991 263.94 399.258 262.523 398.122 261.224L393.606 265.176ZM400.442 270.641C403.151 272.1 406.443 273.641 410.3 275.265L412.628 269.735C408.885 268.159 405.777 266.7 403.286 265.359L400.442 270.641ZM410.427 275.315C414.194 276.703 418.568 278.393 423.55 280.385L425.778 274.815C420.76 272.807 416.334 271.097 412.501 269.685L410.427 275.315ZM423.55 280.385C429.471 282.754 434.879 285.213 439.78 287.762L442.548 282.438C437.449 279.787 431.857 277.246 425.778 274.815L423.55 280.385ZM439.78 287.762C444.551 290.243 448.719 293.184 452.301 296.578L456.427 292.222C452.41 288.416 447.777 285.157 442.548 282.438L439.78 287.762ZM452.364 296.636C455.823 299.731 458.464 303.459 460.295 307.854L465.833 305.546C463.665 300.341 460.505 295.869 456.364 292.164L452.364 296.636ZM460.358 307.994C462.327 312.112 463.364 317.053 463.364 322.9H469.364C469.364 316.347 468.201 310.488 465.77 305.406L460.358 307.994ZM463.364 322.9C463.364 335.734 458.229 345.724 447.82 353.159L451.308 358.041C463.299 349.476 469.364 337.666 469.364 322.9H463.364ZM447.8 353.174C437.475 360.682 423.267 364.6 404.864 364.6V370.6C424.061 370.6 439.653 366.518 451.329 358.026L447.8 353.174ZM510.349 355.9L508.254 358.047L508.268 358.061L508.282 358.074L510.349 355.9ZM498.049 247.3H501.049V244.3H498.049V247.3ZM472.549 247.3H469.549V250.3H472.549V247.3ZM472.549 220.3V217.3H469.549V220.3H472.549ZM498.049 220.3V223.3H501.049V220.3H498.049ZM498.049 189.1L497.502 186.15L495.049 186.605V189.1H498.049ZM535.249 182.2H538.249V178.592L534.702 179.25L535.249 182.2ZM535.249 220.3H532.249V223.3H535.249V220.3ZM572.449 220.3H575.449V217.3H572.449V220.3ZM572.449 247.3V250.3H575.449V247.3H572.449ZM535.249 247.3V244.3H532.249V247.3H535.249ZM540.649 333.7L538.589 335.881L538.651 335.94L538.717 335.995L540.649 333.7ZM566.449 337.6L565.821 334.667L566.449 337.6ZM573.349 335.5H576.349V330.884L572.131 332.759L573.349 335.5ZM573.349 364L574.426 366.8L576.349 366.06V364H573.349ZM563.149 366.4L562.725 363.43L562.656 363.44L562.588 363.453L563.149 366.4ZM547.249 364.6C531.275 364.6 519.852 360.799 512.417 353.726L508.282 358.074C517.247 366.601 530.423 370.6 547.249 370.6V364.6ZM512.444 353.753C505.08 346.569 501.049 334.541 501.049 316.9H495.049C495.049 335.259 499.218 349.231 508.254 358.047L512.444 353.753ZM501.049 316.9V247.3H495.049V316.9H501.049ZM498.049 244.3H472.549V250.3H498.049V244.3ZM475.549 247.3V220.3H469.549V247.3H475.549ZM472.549 223.3H498.049V217.3H472.549V223.3ZM501.049 220.3V189.1H495.049V220.3H501.049ZM498.596 192.05L535.796 185.15L534.702 179.25L497.502 186.15L498.596 192.05ZM532.249 182.2V220.3H538.249V182.2H532.249ZM535.249 223.3H572.449V217.3H535.249V223.3ZM569.449 220.3V247.3H575.449V220.3H569.449ZM572.449 244.3H535.249V250.3H572.449V244.3ZM532.249 247.3V316.9H538.249V247.3H532.249ZM532.249 316.9C532.249 325.061 534.12 331.66 538.589 335.881L542.709 331.519C539.979 328.94 538.249 324.339 538.249 316.9H532.249ZM538.717 335.995C543.242 339.805 549.428 341.5 556.849 341.5V335.5C550.271 335.5 545.656 333.995 542.582 331.405L538.717 335.995ZM556.849 341.5C560.609 341.5 564.026 341.187 567.078 340.533L565.821 334.667C563.272 335.213 560.289 335.5 556.849 335.5V341.5ZM567.078 340.533C569.998 339.908 572.514 339.154 574.568 338.241L572.131 332.759C570.584 333.446 568.5 334.092 565.821 334.667L567.078 340.533ZM570.349 335.5V364H576.349V335.5H570.349ZM572.272 361.2C569.962 362.089 566.805 362.847 562.725 363.43L563.573 369.37C567.894 368.753 571.537 367.911 574.426 366.8L572.272 361.2ZM562.588 363.453C558.64 364.205 553.544 364.6 547.249 364.6V370.6C553.755 370.6 559.259 370.195 563.711 369.347L562.588 363.453ZM729.668 360.4L728.561 363.188L728.585 363.198L728.61 363.207L729.668 360.4ZM695.168 337.9L693.024 339.999L695.168 337.9ZM673.568 303.4L670.744 304.412L670.75 304.43L670.757 304.449L673.568 303.4ZM673.868 215.2L676.679 216.249L673.868 215.2ZM695.468 180.7L693.325 178.601L693.324 178.601L695.468 180.7ZM729.968 157.9L728.861 155.112L728.854 155.115L728.847 155.117L729.968 157.9ZM810.068 153.7L809.353 156.614L809.385 156.621L809.417 156.629L810.068 153.7ZM837.368 163.3H840.368V161.511L838.795 160.661L837.368 163.3ZM837.368 200.5L835.612 202.932L840.368 206.367V200.5H837.368ZM811.568 187.3L810.534 190.116L810.543 190.119L810.552 190.123L811.568 187.3ZM726.668 202.9L728.885 204.921V204.921L726.668 202.9ZM712.268 227.5L709.44 226.498L709.434 226.516L709.428 226.533L712.268 227.5ZM712.568 291.1L709.747 292.12L712.568 291.1ZM726.968 315.1L724.781 317.154L726.968 315.1ZM749.468 330.4L748.332 333.177L748.37 333.192L748.408 333.206L749.468 330.4ZM812.168 330.1L813.202 332.916L812.168 330.1ZM837.368 317.2H840.368V311.37L835.624 314.759L837.368 317.2ZM837.368 354.4L838.765 357.055L840.368 356.211V354.4H837.368ZM810.368 364.3L811.096 367.21L810.368 364.3ZM776.768 365.2C759.461 365.2 744.129 362.643 730.726 357.593L728.61 363.207C742.807 368.557 758.875 371.2 776.768 371.2V365.2ZM730.775 357.612C717.53 352.353 706.393 345.076 697.312 335.801L693.024 339.999C702.743 349.924 714.606 357.647 728.561 363.188L730.775 357.612ZM697.312 335.801C688.223 326.52 681.242 315.384 676.379 302.351L670.757 304.449C675.894 318.216 683.312 330.08 693.024 339.999L697.312 335.801ZM676.392 302.388C671.723 289.354 669.368 274.902 669.368 259H663.368C663.368 275.498 665.813 290.646 670.744 304.412L676.392 302.388ZM669.368 259C669.368 243.521 671.816 229.28 676.679 216.249L671.057 214.151C665.92 227.92 663.368 242.879 663.368 259H669.368ZM676.679 216.249C681.542 203.216 688.523 192.08 697.612 182.799L693.324 178.601C683.612 188.52 676.194 200.384 671.057 214.151L676.679 216.249ZM697.611 182.799C706.906 173.311 718.053 165.936 731.089 160.683L728.847 155.117C715.083 160.664 703.23 168.489 693.325 178.601L697.611 182.799ZM731.075 160.688C744.267 155.45 759.282 152.8 776.168 152.8V146.8C758.654 146.8 742.869 149.55 728.861 155.112L731.075 160.688ZM776.168 152.8C787.951 152.8 799.009 154.076 809.353 156.614L810.783 150.786C799.927 148.124 788.385 146.8 776.168 146.8V152.8ZM809.417 156.629C820.026 158.986 828.848 162.105 835.941 165.939L838.795 160.661C831.088 156.495 821.71 153.214 810.719 150.771L809.417 156.629ZM834.368 163.3V200.5H840.368V163.3H834.368ZM839.124 198.068C831.658 192.675 822.798 188.154 812.584 184.477L810.552 190.123C820.338 193.646 828.678 197.925 835.612 202.932L839.124 198.068ZM812.602 184.484C802.42 180.744 791.063 178.9 778.568 178.9V184.9C790.473 184.9 801.115 186.656 810.534 190.116L812.602 184.484ZM778.568 178.9C767.431 178.9 757.238 180.757 748.032 184.523L750.304 190.077C758.698 186.643 768.105 184.9 778.568 184.9V178.9ZM748.032 184.523C738.834 188.286 730.961 193.739 724.451 200.879L728.885 204.921C734.775 198.461 741.902 193.514 750.304 190.077L748.032 184.523ZM724.451 200.879C717.954 208.005 712.959 216.562 709.44 226.498L715.096 228.502C718.377 219.238 722.982 211.395 728.885 204.921L724.451 200.879ZM709.428 226.533C706.106 236.292 704.468 247.125 704.468 259H710.468C710.468 247.675 712.03 237.508 715.108 228.467L709.428 226.533ZM704.468 259C704.468 271.28 706.207 282.335 709.747 292.12L715.389 290.08C712.128 281.065 710.468 270.72 710.468 259H704.468ZM709.747 292.12C713.271 301.864 718.274 310.227 724.781 317.154L729.155 313.046C723.262 306.773 718.665 299.136 715.389 290.08L709.747 292.12ZM724.781 317.154C731.29 324.083 739.154 329.422 748.332 333.177L750.604 327.623C742.182 324.178 735.045 319.317 729.155 313.046L724.781 317.154ZM748.408 333.206C757.786 336.749 768.05 338.5 779.168 338.5V332.5C768.686 332.5 759.15 330.851 750.528 327.594L748.408 333.206ZM779.168 338.5C791.663 338.5 803.02 336.656 813.202 332.916L811.134 327.284C801.716 330.744 791.073 332.5 779.168 332.5V338.5ZM813.202 332.916C823.203 329.242 831.852 324.826 839.112 319.641L835.624 314.759C828.884 319.574 820.733 323.758 811.134 327.284L813.202 332.916ZM834.368 317.2V354.4H840.368V317.2H834.368ZM835.971 351.745C828.628 355.61 819.863 358.834 809.64 361.39L811.096 367.21C821.673 364.566 830.908 361.19 838.765 357.055L835.971 351.745ZM809.64 361.39C799.505 363.923 788.551 365.2 776.768 365.2V371.2C788.984 371.2 800.431 369.876 811.096 367.21L809.64 361.39ZM967.664 220.6L966.504 223.367L967.664 220.6ZM982.964 231.7L980.659 233.621L982.964 231.7ZM991.964 249.1L989.086 249.946L989.101 249.998L989.118 250.049L991.964 249.1ZM995.264 364V367H998.264V364H995.264ZM958.064 364H955.064V367H958.064V364ZM950.864 253.6L952.891 251.389L950.864 253.6ZM913.664 252.4L915.351 254.881L915.361 254.874L915.372 254.867L913.664 252.4ZM900.464 265L898.076 263.185L897.464 263.989V265H900.464ZM900.464 364V367H903.464V364H900.464ZM863.264 364H860.264V367H863.264V364ZM863.264 148V145H860.264V148H863.264ZM900.464 148H903.464V145H900.464V148ZM900.464 241.9H897.464V251.064L902.883 243.674L900.464 241.9ZM907.964 232.9L910.157 234.947V234.947L907.964 232.9ZM917.564 224.8L915.962 222.264L915.931 222.283L915.9 222.304L917.564 224.8ZM930.164 219.1L931.038 221.97L931.075 221.959L931.113 221.946L930.164 219.1ZM946.364 219.7C954.04 219.7 960.734 220.947 966.504 223.367L968.824 217.833C962.194 215.053 954.688 213.7 946.364 213.7V219.7ZM966.504 223.367C972.295 225.795 976.991 229.218 980.659 233.621L985.269 229.779C980.938 224.582 975.434 220.605 968.824 217.833L966.504 223.367ZM980.659 233.621C984.364 238.066 987.186 243.487 989.086 249.946L994.842 248.253C992.742 241.113 989.564 234.934 985.269 229.779L980.659 233.621ZM989.118 250.049C991.202 256.301 992.264 263.275 992.264 271H998.264C998.264 262.725 997.126 255.099 994.81 248.151L989.118 250.049ZM992.264 271V364H998.264V271H992.264ZM995.264 361H958.064V367H995.264V361ZM961.064 364V277.9H955.064V364H961.064ZM961.064 277.9C961.064 265.889 958.659 256.675 952.891 251.389L948.837 255.811C952.669 259.325 955.064 266.311 955.064 277.9H961.064ZM952.891 251.389C947.447 246.398 940.481 244 932.264 244V250C939.247 250 944.681 252.002 948.837 255.811L952.891 251.389ZM932.264 244C924.541 244 917.726 245.939 911.956 249.933L915.372 254.867C920.003 251.661 925.587 250 932.264 250V244ZM911.977 249.919C906.699 253.509 902.064 257.937 898.076 263.185L902.853 266.815C906.464 262.063 910.63 258.091 915.351 254.881L911.977 249.919ZM897.464 265V364H903.464V265H897.464ZM900.464 361H863.264V367H900.464V361ZM866.264 364V148H860.264V364H866.264ZM863.264 151H900.464V145H863.264V151ZM897.464 148V241.9H903.464V148H897.464ZM902.883 243.674C905.007 240.779 907.43 237.869 910.157 234.947L905.771 230.853C902.898 233.931 900.321 237.021 898.045 240.126L902.883 243.674ZM910.157 234.947C912.79 232.126 915.811 229.574 919.228 227.296L915.9 222.304C912.117 224.826 908.738 227.674 905.771 230.853L910.157 234.947ZM919.166 227.336C922.724 225.089 926.676 223.297 931.038 221.97L929.291 216.23C924.452 217.703 920.004 219.711 915.962 222.264L919.166 227.336ZM931.113 221.946C935.556 220.465 940.628 219.7 946.364 219.7V213.7C940.1 213.7 934.372 214.535 929.215 216.254L931.113 221.946ZM1045.53 363.4L1044.55 366.236L1044.59 366.251L1044.64 366.265L1045.53 363.4ZM1030.23 354.7L1028.22 356.925L1028.24 356.948L1028.27 356.97L1030.23 354.7ZM1020.33 340.6L1017.56 341.747L1017.56 341.764L1017.57 341.782L1020.33 340.6ZM1020.63 303.4L1017.94 302.058L1017.93 302.078L1017.93 302.099L1020.63 303.4ZM1032.33 289L1034.2 291.343L1034.21 291.334L1032.33 289ZM1051.23 279.4L1052.08 282.276L1052.11 282.268L1052.13 282.261L1051.23 279.4ZM1104.03 279.4L1103.15 282.267L1107.03 283.462V279.4H1104.03ZM1096.83 250L1094.71 252.121L1094.75 252.167L1094.8 252.211L1096.83 250ZM1056.03 244.6L1055.46 241.654L1055.45 241.656L1055.44 241.658L1056.03 244.6ZM1042.83 248.2L1043.73 251.061L1043.8 251.039L1043.87 251.015L1042.83 248.2ZM1033.23 251.8L1031.97 249.076L1031.93 249.096L1031.89 249.117L1033.23 251.8ZM1028.43 254.2H1025.43V259.054L1029.77 256.883L1028.43 254.2ZM1028.43 226L1027.09 223.317L1025.43 224.146V226H1028.43ZM1033.83 223.9L1034.84 226.725L1034.92 226.694L1035.01 226.657L1033.83 223.9ZM1044.33 220.6L1045.02 223.518L1045.07 223.507L1045.12 223.494L1044.33 220.6ZM1059.63 217.6L1059.23 214.626L1059.22 214.628L1059.63 217.6ZM1124.73 228.7L1122.87 231.056L1122.9 231.075L1122.92 231.095L1124.73 228.7ZM1143.93 337L1141.64 338.938L1143.93 337ZM1157.13 340.6L1157.62 343.559L1157.85 343.52L1158.08 343.446L1157.13 340.6ZM1159.53 339.7H1162.53V334.846L1158.19 337.017L1159.53 339.7ZM1159.53 361.9L1160.87 364.583L1162.53 363.754V361.9H1159.53ZM1153.83 364L1154.42 366.942L1154.52 366.921L1154.62 366.894L1153.83 364ZM1146.63 365.2L1146.2 362.23L1146.19 362.232L1146.17 362.235L1146.63 365.2ZM1117.53 360.7L1119.31 358.287L1117.53 360.7ZM1107.93 346L1110.82 345.188L1109.18 339.377L1105.54 344.188L1107.93 346ZM1090.53 361L1091.9 363.667L1090.53 361ZM1092.93 336.1L1094.4 338.712L1092.93 336.1ZM1104.03 326.2L1106.49 327.92L1107.03 327.146V326.2H1104.03ZM1104.03 299.5H1107.03V297.25L1104.87 296.62L1104.03 299.5ZM1062.03 304L1060 301.789L1059.98 301.81L1059.95 301.832L1062.03 304ZM1060.83 334.9L1058.76 337.078L1058.8 337.107L1058.83 337.136L1060.83 334.9ZM1064.43 363.1C1057.89 363.1 1051.9 362.235 1046.42 360.535L1044.64 366.265C1050.76 368.165 1057.36 369.1 1064.43 369.1V363.1ZM1046.51 360.564C1041.05 358.681 1036.28 355.967 1032.19 352.43L1028.27 356.97C1032.97 361.033 1038.41 364.119 1044.55 366.236L1046.51 360.564ZM1032.24 352.475C1028.39 348.987 1025.33 344.652 1023.09 339.418L1017.57 341.782C1020.13 347.748 1023.67 352.813 1028.22 356.925L1032.24 352.475ZM1023.1 339.453C1020.88 334.076 1019.73 327.876 1019.73 320.8H1013.73C1013.73 328.524 1014.98 335.524 1017.56 341.747L1023.1 339.453ZM1019.73 320.8C1019.73 315.035 1020.93 309.681 1023.33 304.701L1017.93 302.099C1015.12 307.919 1013.73 314.165 1013.73 320.8H1019.73ZM1023.31 304.742C1025.91 299.539 1029.53 295.078 1034.2 291.343L1030.45 286.657C1025.12 290.922 1020.94 296.061 1017.94 302.058L1023.31 304.742ZM1034.21 291.334C1039.06 287.415 1045 284.381 1052.08 282.276L1050.37 276.524C1042.66 278.819 1035.99 282.185 1030.44 286.666L1034.21 291.334ZM1052.13 282.261C1059.39 279.97 1067.67 278.8 1077.03 278.8V272.8C1067.18 272.8 1058.27 274.03 1050.32 276.539L1052.13 282.261ZM1077.03 278.8C1087 278.8 1095.69 279.974 1103.15 282.267L1104.91 276.533C1096.76 274.026 1087.46 272.8 1077.03 272.8V278.8ZM1107.03 279.4V268.6H1101.03V279.4H1107.03ZM1107.03 268.6C1107.03 259.966 1104.41 252.883 1098.86 247.789L1094.8 252.211C1098.84 255.917 1101.03 261.234 1101.03 268.6H1107.03ZM1098.95 247.879C1093.49 242.419 1084.47 240.1 1072.83 240.1V246.1C1083.99 246.1 1090.97 248.381 1094.71 252.121L1098.95 247.879ZM1072.83 240.1C1066.66 240.1 1060.87 240.614 1055.46 241.654L1056.59 247.546C1061.59 246.586 1066.99 246.1 1072.83 246.1V240.1ZM1055.44 241.658C1050.32 242.681 1045.77 243.919 1041.79 245.385L1043.87 251.015C1047.49 249.681 1051.73 248.519 1056.62 247.542L1055.44 241.658ZM1041.92 245.339C1038.05 246.564 1034.72 247.807 1031.97 249.076L1034.49 254.524C1036.94 253.393 1040.01 252.236 1043.73 251.061L1041.92 245.339ZM1031.89 249.117C1029.49 250.317 1027.89 251.117 1027.09 251.517L1029.77 256.883C1030.57 256.483 1032.17 255.683 1034.57 254.483L1031.89 249.117ZM1031.43 254.2V226H1025.43V254.2H1031.43ZM1029.77 228.683C1030.38 228.38 1032 227.74 1034.84 226.725L1032.82 221.075C1030.06 222.06 1028.08 222.82 1027.09 223.317L1029.77 228.683ZM1035.01 226.657C1037.6 225.546 1040.93 224.494 1045.02 223.518L1043.63 217.682C1039.33 218.706 1035.65 219.854 1032.65 221.143L1035.01 226.657ZM1045.12 223.494C1049.36 222.336 1054.33 221.359 1060.04 220.572L1059.22 214.628C1053.32 215.441 1048.09 216.464 1043.54 217.706L1045.12 223.494ZM1060.02 220.574C1065.87 219.794 1072.24 219.4 1079.13 219.4V213.4C1072.02 213.4 1065.38 213.806 1059.23 214.626L1060.02 220.574ZM1079.13 219.4C1098.78 219.4 1113.21 223.439 1122.87 231.056L1126.59 226.344C1115.45 217.561 1099.47 213.4 1079.13 213.4V219.4ZM1122.92 231.095C1132.6 238.402 1137.63 249.51 1137.63 265H1143.63C1143.63 248.09 1138.05 234.998 1126.54 226.305L1122.92 231.095ZM1137.63 265V323.5H1143.63V265H1137.63ZM1137.63 323.5C1137.63 330.064 1138.72 335.49 1141.64 338.938L1146.22 335.062C1144.74 333.31 1143.63 329.736 1143.63 323.5H1137.63ZM1141.64 338.938C1144.44 342.254 1148.2 343.9 1152.63 343.9V337.9C1149.85 337.9 1147.81 336.946 1146.22 335.062L1141.64 338.938ZM1152.63 343.9C1154.52 343.9 1156.2 343.796 1157.62 343.559L1156.63 337.641C1155.66 337.804 1154.33 337.9 1152.63 337.9V343.9ZM1158.08 343.446C1159.25 343.054 1160.25 342.693 1160.87 342.383L1158.19 337.017C1158.01 337.107 1157.4 337.346 1156.18 337.754L1158.08 343.446ZM1156.53 339.7V361.9H1162.53V339.7H1156.53ZM1158.19 359.217C1156.8 359.908 1155.1 360.544 1153.04 361.106L1154.62 366.894C1156.96 366.256 1159.05 365.492 1160.87 364.583L1158.19 359.217ZM1153.24 361.058C1151.31 361.444 1148.97 361.835 1146.2 362.23L1147.05 368.17C1149.89 367.765 1152.35 367.356 1154.42 366.942L1153.24 361.058ZM1146.17 362.235C1143.77 362.604 1140.74 362.8 1137.03 362.8V368.8C1140.92 368.8 1144.28 368.596 1147.08 368.165L1146.17 362.235ZM1137.03 362.8C1128.98 362.8 1123.2 361.164 1119.31 358.287L1115.74 363.113C1121.05 367.035 1128.27 368.8 1137.03 368.8V362.8ZM1119.31 358.287C1115.33 355.346 1112.47 351.055 1110.82 345.188L1105.04 346.812C1106.99 353.745 1110.53 359.254 1115.74 363.113L1119.31 358.287ZM1105.54 344.188C1100.78 350.472 1095.31 355.161 1089.15 358.333L1091.9 363.667C1098.94 360.039 1105.08 354.728 1110.32 347.812L1105.54 344.188ZM1089.15 358.333C1083.13 361.437 1074.95 363.1 1064.43 363.1V369.1C1075.5 369.1 1084.73 367.363 1091.9 363.667L1089.15 358.333ZM1076.73 343C1083.36 343 1089.28 341.607 1094.4 338.712L1091.45 333.488C1087.37 335.793 1082.5 337 1076.73 337V343ZM1094.4 338.712C1099.36 335.91 1103.41 332.316 1106.49 327.92L1101.57 324.48C1099.05 328.084 1095.69 331.09 1091.45 333.488L1094.4 338.712ZM1107.03 326.2V299.5H1101.03V326.2H1107.03ZM1104.87 296.62C1099.69 295.111 1093.18 294.4 1085.43 294.4V300.4C1092.88 300.4 1098.76 301.089 1103.19 302.38L1104.87 296.62ZM1085.43 294.4C1074.34 294.4 1065.62 296.638 1060 301.789L1064.06 306.211C1068.04 302.562 1074.92 300.4 1085.43 300.4V294.4ZM1059.95 301.832C1054.83 306.737 1052.13 312.597 1052.13 319.3H1058.13C1058.13 314.403 1060.03 310.063 1064.1 306.168L1059.95 301.832ZM1052.13 319.3C1052.13 326.665 1054.2 332.755 1058.76 337.078L1062.89 332.722C1059.85 329.845 1058.13 325.535 1058.13 319.3H1052.13ZM1058.83 337.136C1063.34 341.172 1069.44 343 1076.73 343V337C1070.42 337 1065.92 335.428 1062.83 332.664L1058.83 337.136ZM1195.78 355.9L1193.68 358.047L1193.7 358.061L1193.71 358.074L1195.78 355.9ZM1183.48 247.3H1186.48V244.3H1183.48V247.3ZM1157.98 247.3H1154.98V250.3H1157.98V247.3ZM1157.98 220.3V217.3H1154.98V220.3H1157.98ZM1183.48 220.3V223.3H1186.48V220.3H1183.48ZM1183.48 189.1L1182.93 186.15L1180.48 186.605V189.1H1183.48ZM1220.68 182.2H1223.68V178.592L1220.13 179.25L1220.68 182.2ZM1220.68 220.3H1217.68V223.3H1220.68V220.3ZM1257.88 220.3H1260.88V217.3H1257.88V220.3ZM1257.88 247.3V250.3H1260.88V247.3H1257.88ZM1220.68 247.3V244.3H1217.68V247.3H1220.68ZM1226.08 333.7L1224.02 335.881L1224.08 335.94L1224.15 335.995L1226.08 333.7ZM1251.88 337.6L1251.25 334.667L1251.88 337.6ZM1258.78 335.5H1261.78V330.884L1257.56 332.759L1258.78 335.5ZM1258.78 364L1259.86 366.8L1261.78 366.06V364H1258.78ZM1248.58 366.4L1248.15 363.43L1248.09 363.44L1248.02 363.453L1248.58 366.4ZM1232.68 364.6C1216.7 364.6 1205.28 360.799 1197.85 353.726L1193.71 358.074C1202.68 366.601 1215.85 370.6 1232.68 370.6V364.6ZM1197.87 353.753C1190.51 346.569 1186.48 334.541 1186.48 316.9H1180.48C1180.48 335.259 1184.65 349.231 1193.68 358.047L1197.87 353.753ZM1186.48 316.9V247.3H1180.48V316.9H1186.48ZM1183.48 244.3H1157.98V250.3H1183.48V244.3ZM1160.98 247.3V220.3H1154.98V247.3H1160.98ZM1157.98 223.3H1183.48V217.3H1157.98V223.3ZM1186.48 220.3V189.1H1180.48V220.3H1186.48ZM1184.03 192.05L1221.23 185.15L1220.13 179.25L1182.93 186.15L1184.03 192.05ZM1217.68 182.2V220.3H1223.68V182.2H1217.68ZM1220.68 223.3H1257.88V217.3H1220.68V223.3ZM1254.88 220.3V247.3H1260.88V220.3H1254.88ZM1257.88 244.3H1220.68V250.3H1257.88V244.3ZM1217.68 247.3V316.9H1223.68V247.3H1217.68ZM1217.68 316.9C1217.68 325.061 1219.55 331.66 1224.02 335.881L1228.14 331.519C1225.41 328.94 1223.68 324.339 1223.68 316.9H1217.68ZM1224.15 335.995C1228.67 339.805 1234.86 341.5 1242.28 341.5V335.5C1235.7 335.5 1231.09 333.995 1228.01 331.405L1224.15 335.995ZM1242.28 341.5C1246.04 341.5 1249.46 341.187 1252.51 340.533L1251.25 334.667C1248.7 335.213 1245.72 335.5 1242.28 335.5V341.5ZM1252.51 340.533C1255.43 339.908 1257.94 339.154 1260 338.241L1257.56 332.759C1256.01 333.446 1253.93 334.092 1251.25 334.667L1252.51 340.533ZM1255.78 335.5V364H1261.78V335.5H1255.78ZM1257.7 361.2C1255.39 362.089 1252.23 362.847 1248.15 363.43L1249 369.37C1253.32 368.753 1256.97 367.911 1259.86 366.8L1257.7 361.2ZM1248.02 363.453C1244.07 364.205 1238.97 364.6 1232.68 364.6V370.6C1239.18 370.6 1244.69 370.195 1249.14 369.347L1248.02 363.453Z" fill="white" mask="url(#path-1-outside-1_121_2171)"/>
<path d="M615.635 96.4423C606.861 98.4672 583.687 99.5921 583.687 99.5921L580.838 108.741C580.838 108.741 592.312 107.766 600.711 108.591C600.711 108.591 603.411 108.366 603.711 111.591C603.861 114.891 603.486 118.341 603.486 118.341C603.486 118.341 603.261 120.366 600.486 120.89C597.261 121.415 575.513 122.39 575.513 122.39L571.988 134.239C571.988 134.239 570.713 136.939 573.638 136.189C576.338 135.439 599.136 131.09 602.136 131.69C605.286 132.44 608.885 136.789 607.836 140.689C606.636 145.414 583.837 159.962 570.039 158.988C570.039 158.988 562.764 159.438 556.69 149.613C550.84 140.239 558.714 122.615 558.714 122.615C558.714 122.615 555.19 114.366 557.814 111.366C557.814 111.366 559.314 110.091 563.814 109.716L569.439 98.1672C569.439 98.1672 563.064 98.5422 559.314 93.8925C555.865 89.3929 555.565 87.443 558.264 86.2431C561.114 84.7432 587.512 80.0186 605.661 80.6186C605.661 80.6186 612.035 79.8686 617.66 90.8928C617.66 90.8928 620.21 95.3924 615.71 96.4423M547.24 140.839C544.99 146.314 538.766 152.088 531.266 148.563C523.617 144.964 511.543 120.366 511.543 120.366C511.543 120.366 507.043 111.216 506.143 111.516C506.143 111.516 505.168 109.716 504.644 119.766C503.894 129.74 504.793 149.163 500.669 152.238C496.919 155.238 492.419 153.963 489.87 150.438C487.77 146.913 486.87 138.439 488.07 123.665C489.42 108.891 492.794 93.1426 497.069 88.268C501.569 83.3183 505.168 86.9181 506.518 88.268C506.518 88.268 512.293 93.5176 522.042 109.041L523.692 111.891C523.692 111.891 532.541 126.665 533.441 126.59C533.441 126.59 534.191 127.34 534.791 126.74C535.691 126.515 535.391 121.715 535.391 121.715C535.391 121.715 533.741 105.742 525.492 78.7437C525.492 78.7437 524.292 75.294 525.117 71.9942C525.867 68.9944 529.092 70.4943 529.092 70.4943C529.092 70.4943 541.541 76.4939 547.615 96.7423C553.615 116.991 549.565 135.364 547.315 140.839M486.195 88.8679C484.995 90.9678 484.47 93.8925 479.295 94.7175C479.295 94.7175 429.049 98.2422 426.575 101.767C426.575 101.767 424.925 103.867 427.624 104.392C430.474 104.992 441.873 106.492 447.273 106.792C453.122 106.792 472.771 106.942 479.97 115.791C479.97 115.791 484.095 119.991 483.945 129.515C483.795 139.264 482.07 142.714 478.246 146.239C474.271 149.538 440.223 164.837 418.25 141.439C418.25 141.439 408.201 130.19 421.775 121.64C421.775 121.64 431.524 115.641 456.497 122.615C456.497 122.615 463.997 125.315 463.697 128.09C463.247 131.09 457.472 134.089 449.073 133.939C440.973 133.714 434.974 129.815 436.174 130.49C437.299 130.865 427.399 125.69 424.325 129.215C421.325 132.515 422.075 134.464 425.075 136.489C432.574 140.839 462.047 139.264 470.821 129.44C470.821 129.44 474.346 125.465 469.021 122.24C463.772 119.241 448.473 117.366 442.548 117.141C436.924 116.841 415.85 117.141 412.701 111.666C412.701 111.666 409.701 107.766 413.001 97.1173C416.45 85.8681 440.973 81.5185 451.623 80.6186C451.623 80.6186 480.87 79.4186 486.345 85.4182C486.345 85.4182 487.095 86.7681 486.195 88.7929M403.251 154.788C399.727 157.413 392.227 156.288 390.052 153.288C387.952 150.663 387.203 140.314 387.578 124.04C388.102 107.391 388.327 86.9931 392.077 83.6933C395.827 80.4686 398.077 83.3183 399.577 85.4932C401.076 87.743 403.026 90.2178 403.326 95.3924C403.776 100.642 405.051 127.64 405.051 127.64C405.051 127.64 406.701 152.238 403.326 154.788M410.751 67.0446C400.402 70.5693 393.352 69.4444 387.353 66.8196C384.728 71.5442 383.153 72.9691 381.203 73.2691C378.203 73.5691 375.578 68.7695 375.203 67.2696C374.604 66.1447 373.179 64.1198 374.903 59.5452C369.054 54.2956 368.604 47.2461 369.654 42.5215C371.004 36.9719 380.903 16.1235 410.901 13.6487C410.901 13.6487 425.6 12.5988 428.149 20.3982H428.599C428.599 20.3982 442.848 20.3982 442.548 33.1472C442.548 45.8962 426.799 61.795 410.751 67.2696M424.1 30.7474C414.65 32.2473 400.102 44.8463 393.127 55.2705C403.851 57.2203 422.6 56.4704 430.999 39.5217C430.999 39.5217 434.974 28.8725 424.1 30.7474ZM382.628 38.9967C379.628 43.8714 379.478 46.7961 380.903 48.746C384.428 43.4964 390.652 35.247 400.027 28.7975C392.827 29.5475 386.753 32.5472 382.628 38.9967ZM638.133 154.263C631.234 171.212 625.384 188.385 622.01 214.108C622.01 214.108 621.26 219.133 617.135 217.483C613.01 215.983 606.261 209.234 604.761 199.709C603.261 187.26 608.811 166.262 620.135 142.114C616.835 136.864 614.51 129.065 616.385 118.116C616.385 118.116 619.385 97.8672 639.633 79.5686C639.633 79.5686 642.033 77.5438 643.383 78.2187C645.033 78.9687 644.358 85.4182 643.008 88.7179C641.808 91.8677 632.809 107.466 632.809 107.466C632.809 107.466 627.184 118.116 628.759 126.44C639.408 110.091 663.631 76.9438 678.63 87.443C688.154 94.1925 688.154 115.941 681.03 128.54C675.405 138.514 659.507 159.138 638.283 154.338M669.481 103.342C663.931 109.341 654.032 120.74 646.233 136.189C654.482 135.289 662.506 130.715 664.981 128.39C668.956 124.865 678.105 115.341 676.68 102.742C676.68 102.742 675.78 96.1424 669.481 103.342ZM333.507 163.112C306.959 171.212 281.911 167.462 268.262 163.862C267.887 169.412 267.287 171.737 266.387 172.636C265.337 173.836 256.638 178.786 251.838 171.737C249.738 168.362 248.688 162.287 248.088 156.738C217.341 142.789 203.092 122.24 202.642 121.49C201.892 120.74 194.917 113.466 201.892 104.467C208.416 96.3673 230.015 88.193 249.363 84.9682C250.113 68.4695 251.913 55.7205 254.238 50.0959C257.013 43.3464 260.537 49.346 263.687 53.8456C266.237 57.2203 267.812 71.6942 267.962 83.2433C280.561 82.6434 288.21 83.5433 302.234 86.2431C320.683 89.3929 332.982 98.8422 332.007 109.491C331.107 119.991 321.508 124.34 317.758 124.64C314.008 124.94 308.009 122.165 308.009 122.165C303.809 120.216 307.634 118.416 312.508 116.316C317.908 113.691 316.708 111.066 316.708 111.066C314.758 105.067 290.835 101.092 267.062 101.092C267.062 114.216 267.587 135.964 267.962 148.638C284.61 151.788 297.059 151.113 297.059 151.113C297.059 151.113 357.805 149.388 359.53 110.616C361.405 71.7692 298.784 34.5721 252.663 22.873C206.616 10.7989 180.518 19.3483 178.269 20.4732C175.794 21.6731 178.044 22.123 178.044 22.123C178.044 22.123 180.518 22.498 185.018 23.9979C189.518 25.4978 185.918 27.7476 185.918 27.7476C178.044 30.4474 169.269 28.8725 167.544 25.2728C165.82 21.7481 168.669 18.5233 172.044 13.7987C175.194 8.92405 178.794 9.07404 178.794 9.07404C235.789 -10.7994 305.384 24.8228 305.384 24.8228C370.479 57.6703 381.578 96.2923 380.378 111.291C379.328 126.065 373.629 151.038 333.507 163.187M208.266 109.491C201.817 112.491 206.316 117.291 206.316 117.291C218.465 130.265 233.314 138.439 247.563 143.539C249.213 121.04 249.063 113.016 249.063 101.692C227.015 103.192 214.266 106.792 208.266 109.491Z" fill="white"/>
</svg>
